<svg width="154" height="36" viewBox="0 0 154 36" fill="none" xmlns="http://www.w3.org/2000/svg">
<path d="M16.2 0L19.8371 12.4377H31.6071L22.085 20.1246L25.7221 32.5623L16.2 24.8754L6.67788 32.5623L10.315 20.1246L0.792885 12.4377H12.5629L16.2 0Z" fill="#D9D9D9"/>
<path d="M45.508 25.2273C44.4568 25.2273 43.5501 24.9953 42.7878 24.5312C42.0302 24.0625 41.4455 23.4091 41.0335 22.571C40.6264 21.7282 40.4228 20.7481 40.4228 19.6307C40.4228 18.5133 40.6264 17.5284 41.0335 16.6761C41.4455 15.8191 42.0184 15.1515 42.7523 14.6733C43.4909 14.1903 44.3527 13.9489 45.3375 13.9489C45.9057 13.9489 46.4668 14.0436 47.0208 14.233C47.5747 14.4223 48.079 14.7301 48.5335 15.1562C48.9881 15.5777 49.3503 16.1364 49.6202 16.8324C49.8901 17.5284 50.025 18.3854 50.025 19.4034V20.1136H41.6159V18.6648H48.3205C48.3205 18.0492 48.1974 17.5 47.9512 17.017C47.7097 16.5341 47.364 16.1529 46.9142 15.8736C46.4692 15.5942 45.9436 15.4545 45.3375 15.4545C44.6699 15.4545 44.0923 15.6203 43.6046 15.9517C43.1216 16.2784 42.7499 16.7045 42.4895 17.2301C42.2291 17.7557 42.0989 18.3191 42.0989 18.9205V19.8864C42.0989 20.7102 42.2409 21.4086 42.525 21.9815C42.8139 22.5497 43.2139 22.983 43.7253 23.2812C44.2367 23.5748 44.8309 23.7216 45.508 23.7216C45.9483 23.7216 46.346 23.66 46.7012 23.5369C47.061 23.4091 47.3711 23.2197 47.6316 22.9688C47.892 22.7131 48.0932 22.3958 48.2353 22.017L49.8546 22.4716C49.6841 23.0208 49.3977 23.5038 48.9952 23.9205C48.5927 24.3324 48.0956 24.6544 47.5037 24.8864C46.9119 25.1136 46.2466 25.2273 45.508 25.2273ZM54.5634 10.4545V25H52.802V10.4545H54.5634ZM57.8677 25V14.0909H59.487V15.7955H59.6291C59.8563 15.2131 60.2233 14.7609 60.7299 14.4389C61.2366 14.1122 61.845 13.9489 62.5552 13.9489C63.2749 13.9489 63.8739 14.1122 64.3521 14.4389C64.835 14.7609 65.2115 15.2131 65.4813 15.7955H65.595C65.8743 15.232 66.2934 14.7846 66.8521 14.4531C67.4108 14.117 68.0808 13.9489 68.862 13.9489C69.8374 13.9489 70.6352 14.2543 71.2555 14.8651C71.8758 15.4711 72.1859 16.4157 72.1859 17.6989V25H70.5098V17.6989C70.5098 16.8939 70.2896 16.3187 69.8492 15.973C69.4089 15.6274 68.8904 15.4545 68.2938 15.4545C67.5268 15.4545 66.9326 15.6866 66.5112 16.1506C66.0898 16.6098 65.8791 17.1922 65.8791 17.8977V25H64.1745V17.5284C64.1745 16.9081 63.9733 16.4086 63.5708 16.0298C63.1684 15.6463 62.6499 15.4545 62.0154 15.4545C61.5798 15.4545 61.1726 15.5705 60.7938 15.8026C60.4198 16.0346 60.1168 16.3565 59.8848 16.7685C59.6575 17.1757 59.5438 17.6468 59.5438 18.1818V25H57.8677ZM75.2505 29.0909V14.0909H76.8698V15.8239H77.0687C77.1918 15.6345 77.3623 15.393 77.5801 15.0994C77.8026 14.8011 78.1198 14.536 78.5318 14.304C78.9484 14.0672 79.5119 13.9489 80.2221 13.9489C81.1407 13.9489 81.9503 14.1785 82.6511 14.6378C83.3518 15.0971 83.8987 15.7481 84.2917 16.5909C84.6847 17.4337 84.8812 18.428 84.8812 19.5739C84.8812 20.7292 84.6847 21.7306 84.2917 22.5781C83.8987 23.4209 83.3542 24.0743 82.6582 24.5384C81.9622 24.9976 81.1596 25.2273 80.2505 25.2273C79.5498 25.2273 78.9887 25.1113 78.5673 24.8793C78.1459 24.6425 77.8215 24.375 77.5943 24.0767C77.367 23.7737 77.1918 23.5227 77.0687 23.3239H76.9267V29.0909H75.2505ZM76.8982 19.5455C76.8982 20.3693 77.019 21.0961 77.2605 21.7259C77.5019 22.3509 77.8547 22.8409 78.3187 23.196C78.7827 23.5464 79.3509 23.7216 80.0232 23.7216C80.724 23.7216 81.3088 23.5369 81.7775 23.1676C82.251 22.7936 82.6061 22.2917 82.8429 21.6619C83.0843 21.0275 83.2051 20.322 83.2051 19.5455C83.2051 18.7784 83.0867 18.0871 82.85 17.4716C82.6179 16.8513 82.2652 16.3613 81.7917 16.0014C81.323 15.6368 80.7335 15.4545 80.0232 15.4545C79.3414 15.4545 78.7685 15.6274 78.3045 15.973C77.8405 16.3139 77.4901 16.7921 77.2534 17.4077C77.0166 18.0185 76.8982 18.7311 76.8982 19.5455ZM87.438 25V14.0909H89.0573V15.7386H89.171C89.3698 15.1989 89.7297 14.7609 90.2505 14.4247C90.7714 14.0885 91.3585 13.9205 92.0119 13.9205C92.135 13.9205 92.2889 13.9228 92.4735 13.9276C92.6582 13.9323 92.7979 13.9394 92.8926 13.9489V15.6534C92.8357 15.6392 92.7055 15.6179 92.5019 15.5895C92.3031 15.5563 92.0924 15.5398 91.8698 15.5398C91.3395 15.5398 90.8661 15.651 90.4494 15.8736C90.0375 16.0914 89.7107 16.3944 89.4693 16.7827C89.2325 17.1662 89.1142 17.6042 89.1142 18.0966V25H87.438ZM99.1213 25.2273C98.0701 25.2273 97.1634 24.9953 96.4011 24.5312C95.6435 24.0625 95.0588 23.4091 94.6468 22.571C94.2396 21.7282 94.036 20.7481 94.036 19.6307C94.036 18.5133 94.2396 17.5284 94.6468 16.6761C95.0588 15.8191 95.6317 15.1515 96.3656 14.6733C97.1042 14.1903 97.966 13.9489 98.9508 13.9489C99.519 13.9489 100.08 14.0436 100.634 14.233C101.188 14.4223 101.692 14.7301 102.147 15.1562C102.601 15.5777 102.964 16.1364 103.233 16.8324C103.503 17.5284 103.638 18.3854 103.638 19.4034V20.1136H95.2292V18.6648H101.934C101.934 18.0492 101.811 17.5 101.564 17.017C101.323 16.5341 100.977 16.1529 100.528 15.8736C100.082 15.5942 99.5569 15.4545 98.9508 15.4545C98.2832 15.4545 97.7055 15.6203 97.2179 15.9517C96.7349 16.2784 96.3632 16.7045 96.1028 17.2301C95.8424 17.7557 95.7122 18.3191 95.7122 18.9205V19.8864C95.7122 20.7102 95.8542 21.4086 96.1383 21.9815C96.4271 22.5497 96.8272 22.983 97.3386 23.2812C97.85 23.5748 98.4442 23.7216 99.1213 23.7216C99.5616 23.7216 99.9593 23.66 100.314 23.5369C100.674 23.4091 100.984 23.2197 101.245 22.9688C101.505 22.7131 101.706 22.3958 101.849 22.017L103.468 22.4716C103.297 23.0208 103.011 23.5038 102.608 23.9205C102.206 24.3324 101.709 24.6544 101.117 24.8864C100.525 25.1136 99.8599 25.2273 99.1213 25.2273ZM113.915 16.5341L112.41 16.9602C112.315 16.7093 112.175 16.4654 111.991 16.2287C111.811 15.9872 111.564 15.7884 111.252 15.6321C110.939 15.4759 110.539 15.3977 110.052 15.3977C109.384 15.3977 108.828 15.5516 108.383 15.8594C107.942 16.1624 107.722 16.5483 107.722 17.017C107.722 17.4337 107.874 17.7628 108.177 18.0043C108.48 18.2457 108.953 18.447 109.597 18.608L111.216 19.0057C112.192 19.2424 112.919 19.6046 113.397 20.0923C113.875 20.5753 114.114 21.1979 114.114 21.9602C114.114 22.5852 113.934 23.1439 113.574 23.6364C113.219 24.1288 112.722 24.517 112.083 24.8011C111.444 25.0852 110.7 25.2273 109.853 25.2273C108.74 25.2273 107.819 24.9858 107.09 24.5028C106.361 24.0199 105.899 23.3144 105.705 22.3864L107.296 21.9886C107.447 22.5758 107.734 23.0161 108.155 23.3097C108.581 23.6032 109.138 23.75 109.824 23.75C110.606 23.75 111.226 23.5843 111.685 23.2528C112.149 22.9167 112.381 22.5142 112.381 22.0455C112.381 21.6667 112.249 21.3494 111.983 21.0938C111.718 20.8333 111.311 20.6392 110.762 20.5114L108.944 20.0852C107.945 19.8485 107.211 19.4815 106.742 18.9844C106.278 18.4825 106.046 17.8551 106.046 17.1023C106.046 16.4867 106.219 15.9422 106.564 15.4688C106.915 14.9953 107.391 14.6236 107.992 14.3537C108.598 14.0838 109.285 13.9489 110.052 13.9489C111.131 13.9489 111.979 14.1856 112.594 14.6591C113.215 15.1326 113.655 15.7576 113.915 16.5341ZM124.365 16.5341L122.859 16.9602C122.764 16.7093 122.624 16.4654 122.44 16.2287C122.26 15.9872 122.014 15.7884 121.701 15.6321C121.389 15.4759 120.989 15.3977 120.501 15.3977C119.833 15.3977 119.277 15.5516 118.832 15.8594C118.392 16.1624 118.171 16.5483 118.171 17.017C118.171 17.4337 118.323 17.7628 118.626 18.0043C118.929 18.2457 119.402 18.447 120.046 18.608L121.666 19.0057C122.641 19.2424 123.368 19.6046 123.846 20.0923C124.324 20.5753 124.563 21.1979 124.563 21.9602C124.563 22.5852 124.383 23.1439 124.024 23.6364C123.668 24.1288 123.171 24.517 122.532 24.8011C121.893 25.0852 121.15 25.2273 120.302 25.2273C119.189 25.2273 118.268 24.9858 117.539 24.5028C116.81 24.0199 116.348 23.3144 116.154 22.3864L117.745 21.9886C117.897 22.5758 118.183 23.0161 118.605 23.3097C119.031 23.6032 119.587 23.75 120.274 23.75C121.055 23.75 121.675 23.5843 122.134 23.2528C122.598 22.9167 122.83 22.5142 122.83 22.0455C122.83 21.6667 122.698 21.3494 122.433 21.0938C122.168 20.8333 121.76 20.6392 121.211 20.5114L119.393 20.0852C118.394 19.8485 117.66 19.4815 117.191 18.9844C116.727 18.4825 116.495 17.8551 116.495 17.1023C116.495 16.4867 116.668 15.9422 117.014 15.4688C117.364 14.9953 117.84 14.6236 118.441 14.3537C119.047 14.0838 119.734 13.9489 120.501 13.9489C121.58 13.9489 122.428 14.1856 123.043 14.6591C123.664 15.1326 124.104 15.7576 124.365 16.5341ZM127.086 25V14.0909H128.763V25H127.086ZM127.939 12.2727C127.612 12.2727 127.33 12.1615 127.094 11.9389C126.862 11.7164 126.746 11.4489 126.746 11.1364C126.746 10.8239 126.862 10.5563 127.094 10.3338C127.33 10.1113 127.612 10 127.939 10C128.265 10 128.545 10.1113 128.777 10.3338C129.014 10.5563 129.132 10.8239 129.132 11.1364C129.132 11.4489 129.014 11.7164 128.777 11.9389C128.545 12.1615 128.265 12.2727 127.939 12.2727ZM140.753 14.0909L136.719 25H135.014L130.98 14.0909H132.798L135.81 22.7841H135.923L138.935 14.0909H140.753ZM147.149 25.2273C146.097 25.2273 145.191 24.9953 144.428 24.5312C143.671 24.0625 143.086 23.4091 142.674 22.571C142.267 21.7282 142.063 20.7481 142.063 19.6307C142.063 18.5133 142.267 17.5284 142.674 16.6761C143.086 15.8191 143.659 15.1515 144.393 14.6733C145.132 14.1903 145.993 13.9489 146.978 13.9489C147.546 13.9489 148.107 14.0436 148.661 14.233C149.215 14.4223 149.72 14.7301 150.174 15.1562C150.629 15.5777 150.991 16.1364 151.261 16.8324C151.531 17.5284 151.666 18.3854 151.666 19.4034V20.1136H143.257V18.6648H149.961C149.961 18.0492 149.838 17.5 149.592 17.017C149.35 16.5341 149.005 16.1529 148.555 15.8736C148.11 15.5942 147.584 15.4545 146.978 15.4545C146.311 15.4545 145.733 15.6203 145.245 15.9517C144.762 16.2784 144.391 16.7045 144.13 17.2301C143.87 17.7557 143.74 18.3191 143.74 18.9205V19.8864C143.74 20.7102 143.882 21.4086 144.166 21.9815C144.454 22.5497 144.855 22.983 145.366 23.2812C145.877 23.5748 146.472 23.7216 147.149 23.7216C147.589 23.7216 147.987 23.66 148.342 23.5369C148.702 23.4091 149.012 23.2197 149.272 22.9688C149.533 22.7131 149.734 22.3958 149.876 22.017L151.495 22.4716C151.325 23.0208 151.038 23.5038 150.636 23.9205C150.233 24.3324 149.736 24.6544 149.144 24.8864C148.552 25.1136 147.887 25.2273 147.149 25.2273Z" fill="black"/>
</svg>
